HIERARCHY
ROOT SpineBase
{
  OFFSET 0.000000 0.000000 0.000000
  CHANNELS 6 Xposition Yposition Zposition Zrotation Xrotation Yrotation
  JOINT SpineMid
  {
    OFFSET 0.000000 31.864900 0.000000
    CHANNELS 3 Zrotation Xrotation Yrotation
    JOINT SpineShoulder
    {
      OFFSET 0.054911 23.622085 -0.725461
      CHANNELS 3 Zrotation Xrotation Yrotation
      JOINT Neck
      {
        OFFSET 0.051623 7.802566 -0.556672
        CHANNELS 3 Zrotation Xrotation Yrotation
        JOINT Head
        {
          OFFSET -5.194989 12.495192 1.491386
          CHANNELS 3 Zrotation Xrotation Yrotation
          End Site
          {
            OFFSET 0 0 0
          }
        }
      }
      JOINT ShoulderLeft
      {
        OFFSET -16.212909 -4.878382 8.764318
        CHANNELS 3 Zrotation Xrotation Yrotation
        JOINT ElbowLeft
        {
          OFFSET -2.715297 -27.593573 2.793473
          CHANNELS 3 Zrotation Xrotation Yrotation
          JOINT WristLeft
          {
            OFFSET 0.835702 -25.520831 -3.100223
            CHANNELS 3 Zrotation Xrotation Yrotation
            JOINT HandLeft
            {
              OFFSET 0.118952 -6.243062 -0.580888
              CHANNELS 3 Zrotation Xrotation Yrotation
              JOINT HandTipLeft
              {
                OFFSET 1.176053 -8.059221 0.601771
                CHANNELS 3 Zrotation Xrotation Yrotation
                End Site
                {
                  OFFSET 0 0 0
                }
              }
              JOINT ThumbLeft
              {
                OFFSET -1.936329 -1.645411 -2.197173
                CHANNELS 3 Zrotation Xrotation Yrotation
                End Site
                {
                  OFFSET 0 0 0
                }
              }
            }
          }
        }
      }
      JOINT ShoulderRight
      {
        OFFSET 12.979405 -3.751462 -8.417081
        CHANNELS 3 Zrotation Xrotation Yrotation
        JOINT ElbowRight
        {
          OFFSET 8.369895 -26.836576 -4.218014
          CHANNELS 3 Zrotation Xrotation Yrotation
          JOINT WristRight
          {
            OFFSET 1.766333 -21.980706 -5.635604
            CHANNELS 3 Zrotation Xrotation Yrotation
            JOINT HandRight
            {
              OFFSET -0.889176 -6.275030 -0.347615
              CHANNELS 3 Zrotation Xrotation Yrotation
              JOINT HandTipRight
              {
                OFFSET -0.284720 -8.103533 -0.066969
                CHANNELS 3 Zrotation Xrotation Yrotation
                End Site
                {
                  OFFSET 0 0 0
                }
              }
              JOINT ThumbRight
              {
                OFFSET 2.953858 -1.639831 -1.621146
                CHANNELS 3 Zrotation Xrotation Yrotation
                End Site
                {
                  OFFSET 0 0 0
                }
              }
            }
          }
        }
      }
    }
  }
  JOINT HipLeft
  {
    OFFSET -6.708283 -0.041238 -0.566276
    CHANNELS 3 Zrotation Xrotation Yrotation
    JOINT KneeLeft
    {
      OFFSET 4.255928 -34.245084 4.664116
      CHANNELS 3 Zrotation Xrotation Yrotation
      JOINT AnkleLeft
      {
        OFFSET 13.795218 -37.128837 4.964150
        CHANNELS 3 Zrotation Xrotation Yrotation
        JOINT FootLeft
        {
          OFFSET -1.403655 -7.893162 -5.458549
          CHANNELS 3 Zrotation Xrotation Yrotation
          End Site
          {
            OFFSET 0 0 0
          }
        }
      }
    }
  }
  JOINT HipRight
  {
    OFFSET 7.334558 1.505816 -6.383792
    CHANNELS 3 Zrotation Xrotation Yrotation
    JOINT KneeRight
    {
      OFFSET 7.498473 -34.377302 -11.241809
      CHANNELS 3 Zrotation Xrotation Yrotation
      JOINT AnkleRight
      {
        OFFSET 5.852464 -37.739827 5.921262
        CHANNELS 3 Zrotation Xrotation Yrotation
        JOINT FootRight
        {
          OFFSET -0.457158 -7.031019 -3.085220
          CHANNELS 3 Zrotation Xrotation Yrotation
          End Site
          {
            OFFSET 0 0 0
          }
        }
      }
    }
  }
}
MOTION
Frames: 15
Frame Time: 0.033333
-28.980602 84.901139 344.306848 -3.983568 0.962569 36.835327 0.165203 0.093313 -36.918007 -0.022916 0.196119 -0.160240 -2.531476 3.450121 3.275942 0.000000 0.000000 0.000000 10.145585 33.078658 -4.451118 -32.277639 51.365898 13.760549 -17.931110 14.147343 -13.041606 2.963309 10.002330 22.807090 0.000000 0.000000 0.000000 0.000000 0.000000 0.000000 -50.364788 33.150795 40.600533 -109.307286 21.862186 -3.221532 -50.684155 -5.110053 146.066908 -8.952458 -30.173939 50.870134 0.000000 0.000000 0.000000 0.000000 0.000000 0.000000 1.457074 2.242195 -36.854757 4.643811 -4.688293 -0.051584 -0.000410 -4.290012 1.021628 0.000000 0.000000 0.000000 -3.569849 -5.602410 -37.309144 3.977875 6.461711 0.085233 -28.677756 40.918756 16.957246 0.000000 0.000000 0.000000
-28.849617 84.939768 344.219848 -3.789201 1.212627 35.953540 0.082187 0.126167 -36.028456 0.049282 0.234819 -0.150076 -3.748189 2.749125 3.183656 0.000000 0.000000 0.000000 7.397603 30.981491 -3.662937 -24.767423 50.596152 12.732546 -17.377096 25.662253 -8.726336 1.453089 1.003998 15.872623 0.000000 0.000000 0.000000 0.000000 0.000000 0.000000 -52.861009 33.877509 42.839431 -109.285345 23.153571 -8.629878 -48.141185 -6.268600 150.988629 -15.286901 -27.236422 67.406702 0.000000 0.000000 0.000000 0.000000 0.000000 0.000000 0.746522 2.018030 -36.051998 5.020479 -4.532336 -0.028386 -0.277597 -4.486204 1.232406 0.000000 0.000000 0.000000 -3.928797 -5.531016 -36.333085 4.203212 6.355232 -0.026432 -28.403950 44.854693 17.239431 0.000000 0.000000 0.000000
-28.801092 84.735711 344.181475 -3.665169 1.372461 34.527685 0.013264 0.117310 -34.598879 0.113655 0.275822 -0.141274 -4.898357 1.880445 2.945133 0.000000 0.000000 0.000000 5.180345 28.056203 -2.958720 -16.740514 49.981836 11.080189 -19.322800 33.537780 -7.711703 1.247222 -3.347122 13.647642 0.000000 0.000000 0.000000 0.000000 0.000000 0.000000 -56.138406 34.454126 45.658861 -108.173029 24.727674 -13.611195 -46.839008 -9.568772 154.137958 -18.960157 -26.010245 69.617204 0.000000 0.000000 0.000000 0.000000 0.000000 0.000000 0.376302 1.699417 -34.663817 4.606536 -4.170746 -0.062487 0.896972 -2.140867 0.219030 0.000000 0.000000 0.000000 -3.877965 -5.357715 -34.776215 4.299889 5.956299 -0.136364 -28.522710 41.907817 17.020633 0.000000 0.000000 0.000000
-28.680771 84.332535 344.107101 -3.438415 1.527787 32.750254 -0.126855 0.130999 -32.820129 0.118177 0.303674 -0.136540 -5.826879 1.025285 2.657889 0.000000 0.000000 0.000000 4.083334 24.433324 -2.422138 -12.183599 51.837576 10.148716 -20.687813 38.197911 -7.557483 1.884412 -8.471584 11.560612 0.000000 0.000000 0.000000 0.000000 0.000000 0.000000 -59.569271 34.826055 48.568984 -106.216267 26.342218 -17.378323 -47.404210 -13.035481 152.041477 -20.168729 -27.078785 69.212416 0.000000 0.000000 0.000000 0.000000 0.000000 0.000000 -0.173670 1.352012 -32.952715 4.591332 -3.641921 0.009278 1.057076 -1.683879 -0.031933 0.000000 0.000000 0.000000 -3.919412 -5.050251 -32.823686 4.014124 4.820151 -0.421200 -28.424424 42.507341 17.653999 0.000000 0.000000 0.000000
-28.557873 83.741649 344.038247 -3.201991 1.650600 30.818563 -0.294728 0.127208 -30.889759 0.074138 0.290064 -0.137001 -6.391275 0.525336 2.470545 0.000000 0.000000 0.000000 4.325783 19.980781 -1.946383 -9.725816 52.777144 8.604395 -22.296060 43.370998 -5.801501 1.839767 -10.665482 10.598870 0.000000 0.000000 0.000000 0.000000 0.000000 0.000000 -62.189074 34.858993 50.682421 -103.456857 27.361119 -18.283969 -50.651859 -15.714886 145.029197 -16.278809 -30.446763 62.565934 0.000000 0.000000 0.000000 0.000000 0.000000 0.000000 -0.652552 0.957149 -31.083991 4.532451 -3.095022 0.076898 3.466734 -5.954204 -0.881893 0.000000 0.000000 0.000000 -3.886723 -4.655202 -30.696136 4.178047 4.306988 -0.572562 -28.336714 42.548671 17.595910 0.000000 0.000000 0.000000
-28.485560 83.028303 343.991630 -3.031795 1.731698 29.045201 -0.425192 0.109200 -29.118299 -0.041723 0.256492 -0.145041 -6.580843 0.532988 2.500813 0.000000 0.000000 0.000000 4.184245 19.119228 -1.832266 -6.982772 52.681690 7.400379 -23.833035 43.126583 -6.813907 1.993193 -9.061514 11.272444 0.000000 0.000000 0.000000 0.000000 0.000000 0.000000 -63.273780 35.049598 51.823282 -102.833734 28.011581 -19.334457 -51.838400 -20.272121 143.748703 -19.502573 -36.865637 76.233866 0.000000 0.000000 0.000000 0.000000 0.000000 0.000000 -0.971545 0.479406 -29.366889 4.405943 -2.567442 0.120676 1.902898 -1.381961 -0.795392 0.000000 0.000000 0.000000 -3.693272 -4.246610 -28.743582 4.228625 3.732363 -0.693892 -28.253495 45.455397 17.863635 0.000000 0.000000 0.000000
-28.422819 82.292401 343.962010 -2.869603 1.779519 27.498860 -0.477823 0.120604 -27.570857 -0.114940 0.257480 -0.147235 -6.773337 0.754315 2.649779 0.000000 0.000000 0.000000 4.694678 21.283542 -2.120427 -8.679412 53.117512 8.079155 -22.752553 37.279228 -9.023826 2.006837 -5.467113 12.873727 0.000000 0.000000 0.000000 0.000000 0.000000 0.000000 -62.932048 35.416532 51.846973 -104.235316 28.339205 -20.336232 -50.560809 -23.408529 146.265664 -19.532708 -37.227935 71.444097 0.000000 0.000000 0.000000 0.000000 0.000000 0.000000 -1.226690 -0.010062 -27.876643 4.323692 -2.041449 0.167791 1.148350 1.965580 -0.995694 0.000000 0.000000 0.000000 -3.490947 -3.811831 -27.033296 4.238791 3.163015 -0.800059 -28.222391 41.789730 17.428634 0.000000 0.000000 0.000000
-28.353410 81.644216 343.942263 -2.690671 1.795219 26.131596 -0.511996 0.139595 -26.201957 -0.119107 0.236690 -0.142931 -7.144880 1.184066 2.895361 0.000000 0.000000 0.000000 4.762598 21.038776 -2.118638 -4.552458 53.297098 6.105218 -29.638733 36.535838 -13.234029 7.110408 -2.453788 20.012635 0.000000 0.000000 0.000000 0.000000 0.000000 0.000000 -61.786576 35.668083 51.001534 -107.016429 28.188467 -21.672117 -47.599553 -24.766321 150.119142 -14.053813 -30.958090 45.296422 0.000000 0.000000 0.000000 0.000000 0.000000 0.000000 -1.429095 -0.392876 -26.553606 4.129812 -1.979179 0.050993 1.225260 5.180806 -1.437135 0.000000 0.000000 0.000000 -3.368316 -3.348142 -25.508414 4.273444 2.634329 -0.907486 -28.150816 38.316349 16.987148 0.000000 0.000000 0.000000
-28.219329 81.164442 343.911532 -2.433611 1.841597 25.733113 -0.552244 0.171259 -25.800605 -0.039072 0.250592 -0.128234 -8.020560 1.729125 3.261409 0.000000 0.000000 0.000000 4.860349 20.631412 -2.126346 -6.463578 55.084031 6.818594 -28.274483 32.717468 -14.093559 6.089351 -0.483232 19.501288 0.000000 0.000000 0.000000 0.000000 0.000000 0.000000 -59.782780 36.112882 49.499590 -111.483365 27.918691 -24.041307 -41.994252 -24.044258 158.810311 -7.315282 -22.305067 12.550474 0.000000 0.000000 0.000000 0.000000 0.000000 0.000000 -1.625339 -0.499189 -26.163847 3.854557 -2.086163 -0.065152 0.457924 7.457808 -1.027012 0.000000 0.000000 0.000000 -3.638962 -3.006533 -24.993205 4.440976 2.376482 -1.011264 -28.078624 35.402008 16.609192 0.000000 0.000000 0.000000
-28.062077 80.967146 343.859278 -2.177247 1.915959 25.757020 -0.577422 0.185446 -25.820927 0.081875 0.230628 -0.109857 -9.046345 2.357401 3.677745 0.000000 0.000000 0.000000 4.999441 20.314582 -2.153839 -7.306581 55.275801 6.843442 -27.466627 31.694682 -13.795994 5.488958 0.051254 18.994255 0.000000 0.000000 0.000000 0.000000 0.000000 0.000000 -57.325515 36.976457 47.997515 -117.060696 27.953372 -27.677254 -35.221684 -20.396960 173.056606 -3.303736 -10.236797 -16.708411 0.000000 0.000000 0.000000 0.000000 0.000000 0.000000 -1.829302 -0.524888 -26.188148 3.411484 -2.408743 -0.263671 0.863308 9.295994 -1.165558 0.000000 0.000000 0.000000 -4.091176 -2.873603 -24.959701 4.650360 2.371413 -1.083568 -28.055512 33.417591 16.369420 0.000000 0.000000 0.000000
-27.794101 81.131479 343.729075 -1.830503 2.084153 25.871184 -0.649732 0.176641 -25.932044 0.233806 0.188964 -0.086670 -10.250569 2.837645 4.037071 0.000000 0.000000 0.000000 5.162858 20.217094 -2.224303 -8.801106 55.826626 7.170071 -26.296579 29.968123 -13.694955 4.877505 0.090219 17.945013 0.000000 0.000000 0.000000 0.000000 0.000000 0.000000 -56.340917 39.163788 48.741759 -122.627466 30.198877 -33.466723 -29.364671 -18.846379 -172.004504 5.023313 -3.168483 -50.454110 0.000000 0.000000 0.000000 0.000000 0.000000 0.000000 -2.471276 -0.561652 -26.370250 3.218891 -2.577344 -0.404112 1.833602 9.333208 -1.401061 0.000000 0.000000 0.000000 -5.041942 -3.006642 -25.054645 5.100150 2.730264 -1.174289 -28.097274 32.675277 16.312736 0.000000 0.000000 0.000000
-27.624773 81.294391 343.665153 -1.655228 2.181391 25.351863 -0.583022 0.154226 -25.406338 0.360285 0.181703 -0.066353 -11.248378 3.003517 4.221060 0.000000 0.000000 0.000000 5.284681 20.161977 -2.287431 -11.745251 57.290941 8.437092 -25.796147 26.398434 -14.644267 4.050358 1.378569 16.808225 0.000000 0.000000 0.000000 0.000000 0.000000 0.000000 -55.342142 40.985864 49.175585 -128.944532 32.547553 -42.304450 -19.711690 -19.351477 -144.682905 14.346153 0.256032 -77.424372 0.000000 0.000000 0.000000 0.000000 0.000000 0.000000 -2.773425 -0.688265 -25.888177 2.888850 -2.682674 -0.533920 2.290225 9.250483 -1.285586 0.000000 0.000000 0.000000 -5.362934 -2.993983 -24.493128 5.266662 2.722230 -1.232817 -28.232412 33.265977 16.469139 0.000000 0.000000 0.000000
-27.631453 81.400220 343.685585 -1.669268 2.200845 24.527121 -0.459923 0.122878 -24.575378 0.488965 0.194008 -0.050659 -12.092216 3.000313 4.307702 0.000000 0.000000 0.000000 5.662068 20.285023 -2.367968 -13.698130 57.824506 9.039298 -27.086003 24.491366 -16.050123 5.131124 1.648355 17.132839 0.000000 0.000000 0.000000 0.000000 0.000000 0.000000 -54.941793 42.785171 50.160506 -129.388649 33.730378 -41.474637 -17.456089 -21.055252 -138.023398 19.126822 -3.750355 -86.857944 0.000000 0.000000 0.000000 0.000000 0.000000 0.000000 -2.547002 -0.938149 -25.036739 2.265418 -2.845226 -0.711135 3.115101 8.491963 -1.356136 0.000000 0.000000 0.000000 -5.164583 -2.940766 -23.636939 5.191220 2.519780 -1.242030 -28.708482 39.114540 17.465070 0.000000 0.000000 0.000000
-27.624129 81.487455 343.667714 -1.671102 2.259883 23.517763 -0.372815 0.086869 -23.560959 0.539124 0.187037 -0.042695 -12.646349 2.820961 4.275124 0.000000 0.000000 0.000000 5.999197 20.538598 -2.451168 -14.154942 57.163825 8.809053 -28.927570 25.238192 -16.763941 7.216062 0.790333 18.323036 0.000000 0.000000 0.000000 0.000000 0.000000 0.000000 -59.558978 42.625526 53.708888 -125.462740 35.569760 -41.816558 -20.062902 -22.054439 -147.689001 18.381623 -0.355248 -79.522040 0.000000 0.000000 0.000000 0.000000 0.000000 0.000000 -2.393399 -1.298531 -24.019791 1.717991 -2.874790 -0.850617 4.066270 6.770721 -1.400415 0.000000 0.000000 0.000000 -5.044791 -2.941535 -22.594524 5.165086 2.349672 -1.262657 -28.508692 36.979138 17.080694 0.000000 0.000000 0.000000
-27.659883 81.559032 343.647675 -1.715991 2.310738 22.669627 -0.273397 0.045754 -22.707539 0.536497 0.187082 -0.040494 -12.878555 2.362660 4.054522 0.000000 0.000000 0.000000 6.214678 20.896378 -2.530806 -12.942830 55.792791 7.830692 -29.688589 26.453403 -16.483822 6.530304 2.033641 18.744605 0.000000 0.000000 0.000000 0.000000 0.000000 0.000000 -63.185522 41.829737 56.056581 -124.227025 37.245728 -45.590245 -16.955214 -27.186650 -153.764915 15.356159 -3.930006 -69.682270 0.000000 0.000000 0.000000 0.000000 0.000000 0.000000 -2.170828 -1.646965 -23.156288 1.266088 -2.840568 -0.944221 5.692376 3.232633 -1.694466 0.000000 0.000000 0.000000 -4.871574 -3.000016 -21.740423 5.094662 2.235525 -1.258609 -28.413812 36.985855 17.016643 0.000000 0.000000 0.000000
